<svg width="121" height="22" viewBox="0 0 121 22" fill="none" xmlns="http://www.w3.org/2000/svg">
<path d="M19.5421 9.57798L15.7887 12.8168L16.9322 17.6604C16.9953 17.9233 16.9791 18.1991 16.8855 18.4528C16.792 18.7065 16.6254 18.9268 16.4067 19.0858C16.188 19.2449 15.9271 19.3356 15.6569 19.3464C15.3867 19.3573 15.1194 19.2878 14.8887 19.1468L10.6765 16.5544L6.46179 19.1468C6.2311 19.287 5.96408 19.3558 5.69436 19.3445C5.42465 19.3333 5.16428 19.2425 4.94606 19.0836C4.72784 18.9247 4.56152 18.7047 4.46804 18.4515C4.37456 18.1982 4.35811 17.923 4.42075 17.6604L5.56847 12.8168L1.81502 9.57798C1.61091 9.40158 1.4633 9.16895 1.39062 8.90916C1.31793 8.64936 1.32339 8.37391 1.40632 8.1172C1.48925 7.86049 1.64598 7.6339 1.85692 7.46573C2.06786 7.29756 2.32367 7.19526 2.5924 7.17161L7.51359 6.77458L9.412 2.18036C9.51475 1.92998 9.68964 1.7158 9.91443 1.56507C10.1392 1.41434 10.4038 1.33386 10.6744 1.33386C10.9451 1.33386 11.2096 1.41434 11.4344 1.56507C11.6592 1.7158 11.8341 1.92998 11.9368 2.18036L13.8344 6.77458L18.7556 7.17161C19.0248 7.19438 19.2814 7.29611 19.4931 7.46405C19.7048 7.63199 19.8623 7.85867 19.9457 8.11569C20.0292 8.37271 20.0349 8.64864 19.9622 8.90891C19.8895 9.16918 19.7417 9.40222 19.5371 9.57882L19.5421 9.57798Z" fill="#EF6B23"/>
<path d="M44.4578 9.57798L40.7043 12.8168L41.8479 17.6604C41.911 17.9233 41.8947 18.1991 41.8012 18.4528C41.7077 18.7065 41.541 18.9268 41.3223 19.0858C41.1037 19.2449 40.8428 19.3356 40.5726 19.3464C40.3024 19.3573 40.0351 19.2878 39.8043 19.1468L35.5921 16.5544L31.3774 19.1468C31.1467 19.287 30.8797 19.3558 30.61 19.3445C30.3403 19.3333 30.0799 19.2425 29.8617 19.0836C29.6435 18.9247 29.4772 18.7047 29.3837 18.4515C29.2902 18.1982 29.2738 17.923 29.3364 17.6604L30.4841 12.8168L26.7307 9.57798C26.5266 9.40158 26.379 9.16895 26.3063 8.90916C26.2336 8.64936 26.239 8.37391 26.322 8.1172C26.4049 7.86049 26.5616 7.6339 26.7726 7.46573C26.9835 7.29756 27.2393 7.19526 27.508 7.17161L32.4292 6.77458L34.3276 2.18036C34.4304 1.92998 34.6053 1.7158 34.8301 1.56507C35.0549 1.41434 35.3194 1.33386 35.5901 1.33386C35.8607 1.33386 36.1252 1.41434 36.35 1.56507C36.5748 1.7158 36.7497 1.92998 36.8525 2.18036L38.75 6.77458L43.6712 7.17161C43.9405 7.19438 44.1971 7.29611 44.4088 7.46405C44.6205 7.63199 44.7779 7.85867 44.8614 8.11569C44.9448 8.37271 44.9505 8.64864 44.8779 8.90891C44.8052 9.16918 44.6573 9.40222 44.4528 9.57882L44.4578 9.57798Z" fill="#EF6B23"/>
<path d="M69.3656 9.57798L65.6122 12.8168L66.7557 17.6604C66.8188 17.9233 66.8026 18.1991 66.709 18.4528C66.6155 18.7065 66.4489 18.9268 66.2302 19.0858C66.0115 19.2449 65.7506 19.3356 65.4804 19.3464C65.2102 19.3573 64.9429 19.2878 64.7122 19.1468L60.5 16.5544L56.2853 19.1468C56.0546 19.287 55.7876 19.3558 55.5179 19.3445C55.2481 19.3333 54.9878 19.2425 54.7695 19.0836C54.5513 18.9247 54.385 18.7047 54.2915 18.4515C54.1981 18.1982 54.1816 17.923 54.2442 17.6604L55.392 12.8168L51.6385 9.57798C51.4344 9.40158 51.2868 9.16895 51.2141 8.90916C51.1414 8.64936 51.1469 8.37391 51.2298 8.1172C51.3127 7.86049 51.4695 7.6339 51.6804 7.46573C51.8913 7.29756 52.1472 7.19526 52.4159 7.17161L57.3371 6.77458L59.2355 2.18036C59.3382 1.92998 59.5131 1.7158 59.7379 1.56507C59.9627 1.41434 60.2272 1.33386 60.4979 1.33386C60.7685 1.33386 61.0331 1.41434 61.2579 1.56507C61.4827 1.7158 61.6575 1.92998 61.7603 2.18036L63.6579 6.77458L68.5791 7.17161C68.8483 7.19438 69.1049 7.29611 69.3166 7.46405C69.5283 7.63199 69.6857 7.85867 69.7692 8.11569C69.8526 8.37271 69.8584 8.64864 69.7857 8.90891C69.713 9.16918 69.5651 9.40222 69.3606 9.57882L69.3656 9.57798Z" fill="#EF6B23"/>
<path d="M94.2814 9.57798L90.5279 12.8168L91.6715 17.6604C91.7346 17.9233 91.7183 18.1991 91.6248 18.4528C91.5313 18.7065 91.3646 18.9268 91.146 19.0858C90.9273 19.2449 90.6664 19.3356 90.3962 19.3464C90.126 19.3573 89.8587 19.2878 89.6279 19.1468L85.4157 16.5544L81.201 19.1468C80.9704 19.287 80.7033 19.3558 80.4336 19.3445C80.1639 19.3333 79.9035 19.2425 79.6853 19.0836C79.4671 18.9247 79.3008 18.7047 79.2073 18.4515C79.1138 18.1982 79.0974 17.923 79.16 17.6604L80.3077 12.8168L76.5543 9.57798C76.3502 9.40158 76.2026 9.16895 76.1299 8.90916C76.0572 8.64936 76.0627 8.37391 76.1456 8.1172C76.2285 7.86049 76.3852 7.6339 76.5962 7.46573C76.8071 7.29756 77.0629 7.19526 77.3317 7.17161L82.2528 6.77458L84.1513 2.18036C84.254 1.92998 84.4289 1.7158 84.6537 1.56507C84.8785 1.41434 85.143 1.33386 85.4137 1.33386C85.6843 1.33386 85.9488 1.41434 86.1736 1.56507C86.3984 1.7158 86.5733 1.92998 86.6761 2.18036L88.5736 6.77458L93.4948 7.17161C93.7641 7.19438 94.0207 7.29611 94.2324 7.46405C94.4441 7.63199 94.6015 7.85867 94.685 8.11569C94.7684 8.37271 94.7742 8.64864 94.7015 8.90891C94.6288 9.16918 94.4809 9.40222 94.2764 9.57882L94.2814 9.57798Z" fill="#EF6B23"/>
<path d="M119.594 8.11164C119.511 7.85517 119.353 7.62914 119.141 7.462C118.93 7.29487 118.673 7.19412 118.405 7.17244L113.483 6.77541L111.583 2.18036C111.481 1.92998 111.306 1.7158 111.081 1.56507C110.856 1.41434 110.592 1.33386 110.321 1.33386C110.05 1.33386 109.786 1.41434 109.561 1.56507C109.336 1.7158 109.161 1.92998 109.058 2.18036L107.16 6.77458L102.236 7.17244C101.967 7.19521 101.711 7.29694 101.499 7.46488C101.287 7.63282 101.13 7.8595 101.046 8.11652C100.963 8.37354 100.957 8.64947 101.03 8.90974C101.102 9.17001 101.25 9.40305 101.455 9.57965L105.208 12.8185L104.065 17.6612C104.001 17.9243 104.016 18.2005 104.11 18.4547C104.203 18.7089 104.37 18.9296 104.589 19.0889C104.808 19.2481 105.069 19.3387 105.34 19.3492C105.61 19.3597 105.878 19.2895 106.108 19.1476L110.32 16.5552L114.535 19.1476C114.766 19.2878 115.033 19.3566 115.303 19.3454C115.572 19.3341 115.833 19.2433 116.051 19.0844C116.269 18.9255 116.435 18.7056 116.529 18.4523C116.622 18.1991 116.639 17.9238 116.576 17.6612L115.428 12.8176L119.182 9.57882C119.388 9.40251 119.537 9.16897 119.611 8.90778C119.684 8.6466 119.678 8.36951 119.594 8.11164ZM118.314 8.56789L114.252 12.0711C114.16 12.151 114.091 12.2547 114.053 12.3711C114.016 12.4874 114.011 12.6119 114.039 12.7309L115.28 17.969C115.283 17.9762 115.284 17.9844 115.281 17.9919C115.278 17.9993 115.273 18.0055 115.266 18.0091C115.251 18.0207 115.247 18.0182 115.234 18.0091L110.67 15.2023C110.565 15.1377 110.444 15.1035 110.32 15.1035C110.197 15.1035 110.076 15.1377 109.971 15.2023L105.407 18.0107C105.394 18.0182 105.391 18.0207 105.375 18.0107C105.368 18.0071 105.363 18.001 105.36 17.9935C105.357 17.9861 105.358 17.9779 105.361 17.9707L106.602 12.7325C106.63 12.6136 106.625 12.4891 106.588 12.3727C106.55 12.2564 106.481 12.1526 106.388 12.0728L102.326 8.56956C102.316 8.56122 102.307 8.55371 102.316 8.52785C102.324 8.502 102.331 8.50533 102.343 8.50366L107.675 8.07327C107.797 8.06278 107.914 8.01877 108.013 7.94607C108.112 7.87337 108.189 7.77481 108.235 7.66122L110.289 2.68916C110.295 2.67498 110.298 2.66831 110.318 2.66831C110.338 2.66831 110.34 2.67498 110.347 2.68916L112.406 7.66122C112.453 7.77485 112.53 7.87331 112.629 7.94573C112.729 8.01814 112.846 8.0617 112.969 8.0716L118.3 8.502C118.313 8.502 118.32 8.502 118.328 8.52619C118.335 8.55037 118.328 8.55955 118.314 8.56789Z" fill="#FFD901"/>
<mask id="mask0_1_824" style="mask-type:alpha" maskUnits="userSpaceOnUse" x="100" y="1" width="20" height="19">
<path d="M119.189 9.57786L115.436 12.8167L116.579 17.6603C116.642 17.9232 116.626 18.199 116.533 18.4527C116.439 18.7064 116.272 18.9267 116.054 19.0857C115.835 19.2448 115.574 19.3354 115.304 19.3463C115.034 19.3571 114.767 19.2877 114.536 19.1467L110.324 16.5543L106.109 19.1467C105.878 19.2869 105.611 19.3557 105.341 19.3444C105.072 19.3332 104.811 19.2424 104.593 19.0835C104.375 18.9245 104.209 18.7046 104.115 18.4514C104.022 18.1981 104.005 17.9229 104.068 17.6603L105.216 12.8167L101.462 9.57786C101.258 9.40146 101.11 9.16883 101.038 8.90904C100.965 8.64924 100.97 8.37379 101.053 8.11708C101.136 7.86037 101.293 7.63378 101.504 7.46561C101.715 7.29744 101.971 7.19514 102.239 7.17148L107.161 6.77445L109.059 2.18023C109.162 1.92985 109.337 1.71568 109.562 1.56495C109.786 1.41422 110.051 1.33374 110.321 1.33374C110.592 1.33374 110.857 1.41422 111.081 1.56495C111.306 1.71568 111.481 1.92985 111.584 2.18023L113.481 6.77445L118.403 7.17148C118.672 7.19426 118.928 7.29599 119.14 7.46392C119.352 7.63186 119.509 7.85854 119.593 8.11556C119.676 8.37259 119.682 8.64852 119.609 8.90879C119.537 9.16906 119.389 9.40209 119.184 9.5787L119.189 9.57786Z" fill="#FFD901"/>
</mask>
<g mask="url(#mask0_1_824)">
<rect x="101.424" y="1.66739" width="17.7941" height="18.0137" fill="#EF6B23"/>
</g>
</svg>
